<svg version="1.0" xmlns="http://www.w3.org/2000/svg" width="108" height="71" viewBox="-50 -5 257 170" stroke="#fff" stroke-width="10" fill="none"><g transform="translate(-52 8)"><circle cx="80" cy="80" r="70"/><path d="M27 32c7 20 93 43 121 28M13 60c-3 30 117 60 135 35M16 106c16 19 84 39 112 24M100 13C34 3 10 130 65 148M100 13C70 33 45 118 65 148M100 13c13 22 5 112-35 135M100 13c60 35 20 147-35 135"/></g><g transform="matrix(-1 0 0 1 230 -3)"><ellipse cx="75" cy="72" rx="47" ry="59" transform="rotate(-5)"/><ellipse cx="70" cy="56" rx="7" ry="11" fill="#fff" transform="rotate(-2)" stroke="none"/><ellipse cx="93" cy="56" rx="7" ry="11" fill="#fff" transform="rotate(-2)" stroke="none"/><path stroke-linecap="round" d="M62 87c8 8 34 8 42-1M35 155c35-45 61-35 95-10"/></g></svg>