<svg version="1.0" xmlns="http://www.w3.org/2000/svg" width="108" height="71" viewBox="-50 -5 257 170" stroke="#fff" stroke-width="10" fill="none"><g transform="matrix(.97 0 0 .97 -50.44 4.85)"><rect x="6" y="15" rx="10" ry="10" width="140" height="115" transform="matrix(.99756 -.08717 .06976 .99635 0 0)"/><rect x="26" y="32" rx="10" ry="10" width="100" height="81" transform="matrix(.99756 -.08717 .06976 .99635 0 0)"/><ellipse cx="62" cy="58" rx="7" ry="11" transform="rotate(-4)" fill="#fff" stroke="none"/><ellipse cx="87" cy="58" rx="7" ry="11" transform="rotate(-4)" fill="#fff" stroke="none"/><path stroke-linecap="round" d="M60 82c8 8 33 4 40-5"/><ellipse cx="72" cy="147" rx="42" ry="16" transform="rotate(-5)"/></g><g transform="matrix(-1.03 0 0 1.03 234.84 -4.12)"><ellipse cx="75" cy="72" rx="47" ry="59" transform="rotate(-5)"/><ellipse cx="70" cy="56" rx="7" ry="11" fill="#fff" transform="rotate(-2)" stroke="none"/><ellipse cx="93" cy="56" rx="7" ry="11" fill="#fff" transform="rotate(-2)" stroke="none"/><path stroke-linecap="round" d="M67 97c3-7 25-11 33-4M35 155c35-45 61-35 95-10"/></g></svg>