<svg version="1.0" xmlns="http://www.w3.org/2000/svg" width="270" height="270" viewBox="0 0 270 270" stroke="#fff" stroke-linecap="round" stroke-width="11" fill="none"><defs><linearGradient id="a" x1="0%" y1="0%" x2="0%" y2="100%"><stop offset="0%" stop-color="#252525"/><stop offset="100%" stop-color="#555"/></linearGradient></defs><path fill="url(#a)" stroke="none" d="M0 0h270v270H0z"/><path d="M90 10v250M180 10v250M10 90h250M10 180h250"/><circle cx="135" cy="45" r="27"/><circle cx="225" cy="45" r="27" stroke="#ee1149"/><path d="M20 20l50 50M70 20L20 70"/><circle cx="135" cy="135" r="27" stroke="#ee1149"/><path d="M20 110l50 50M70 110l-50 50M200 110l50 50M250 110l-50 50"/><circle cx="45" cy="225" r="27" stroke="#ee1149"/><path d="M110 200l50 50M160 200l-50 50"/></svg>