<svg version="1.0" xmlns="http://www.w3.org/2000/svg" width="108" height="71" viewBox="-50 -5 257 170" stroke="#fff" stroke-width="10" fill="none"><defs><filter id="a"><feDropShadow dx="2" dy="2" stdDeviation="3"/></filter></defs><g filter="url(#a)"><g transform="matrix(.97 0 0 .97 -50.44 4.85)"><rect x="6" y="15" rx="10" ry="10" width="140" height="115" transform="matrix(.99756 -.08717 .06976 .99635 0 0)"/><rect x="26" y="32" rx="10" ry="10" width="100" height="81" transform="matrix(.99756 -.08717 .06976 .99635 0 0)"/><ellipse cx="62" cy="58" rx="7" ry="11" transform="rotate(-4)" stroke="none" fill="#fff"/><ellipse cx="87" cy="58" rx="7" ry="11" transform="rotate(-4)" stroke="none" fill="#fff"/><path stroke-linecap="round" d="M70 87l23-2"/><ellipse cx="72" cy="147" rx="42" ry="16" transform="rotate(-5)"/></g><g transform="matrix(-1.03 0 0 1.03 234.84 -4.12)"><ellipse cx="75" cy="72" rx="47" ry="59" transform="rotate(-5)"/><ellipse cx="70" cy="56" rx="7" ry="11" stroke="none" fill="#fff" transform="rotate(-2)"/><ellipse cx="93" cy="56" rx="7" ry="11" stroke="none" fill="#fff" transform="rotate(-2)"/><path stroke-linecap="round" d="M70 95l25-3M35 155c35-45 61-35 95-10"/></g></g></svg>